<svg id="Layer_1" data-name="Layer 1" xmlns="http://www.w3.org/2000/svg" viewBox="0 0 734 231.72"><path d="M267.22,545.3c2.1-17.22-9-28.21-38.27-37.55-14.19-4.84-20.87-11.18-20.71-19.91.59-9.68,9.6-16.73,21.55-17A48.44,48.44,0,0,1,256.22,479c1.07.67,1.81.57,2.42-.35.83-1.33,2.88-4.53,3.57-5.68a1.77,1.77,0,0,0-.62-2.58,62.12,62.12,0,0,0-9-4.87,59.49,59.49,0,0,0-23-4.72c-17.49.08-31.28,11.14-32.43,25.91q-1.12,16,15.85,25.92c2.4,1.4,15.4,6.56,20.57,8.17,16.26,5.07,24.7,14.14,22.71,24.72-1.8,9.6-11.9,15.8-25.82,16a50.28,50.28,0,0,1-28.68-10.91l-1.29-1a1.66,1.66,0,0,0-2.62.27c-.47.71-3.45,5-4.2,6.14s-.33,1.54.4,2.15a65,65,0,0,0,10.41,7.1A61.61,61.61,0,0,0,230.37,572a44.85,44.85,0,0,0,19-3.24A28.72,28.72,0,0,0,267.22,545.3ZM231.09,393.5c-19,0-34.41,17.86-35.13,40.22h70.25C265.49,411.36,250,393.5,231.09,393.5Zm72,207.11h-.73l-144.68,0h0c-9.84-.37-17.08-8.35-18.06-18.25l-.1-1.78L133,438.25h0c0-.1,0-.21,0-.32a4.21,4.21,0,0,1,4.13-4.21h45.6c1.12-29.52,22.34-53.07,48.36-53.07s47.23,23.55,48.35,53.07H325a4.2,4.2,0,0,1,4.2,4.21v.21h0L322.09,581l-.06,1.21C321.17,592.26,313.06,600.34,303.05,600.61Zm104.29-94.79c31.15,9.32,43.41,21,41.45,39.71a31.18,31.18,0,0,1-18.92,25.71,48.26,48.26,0,0,1-20.31,3.83,65.6,65.6,0,0,1-27.65-6.59,67.84,67.84,0,0,1-11.22-7.35h0c-1.66-1.4-1.86-2.31-.72-4,.29-.46.83-1.28,2.07-3.15,1.07-1.61,2.13-3.23,2.19-3.31,1.32-2,2.73-2,4.67-.67l.68.51.69.5a50.77,50.77,0,0,0,29.16,10.53c13.9-.42,23.7-6.66,25.27-15.92,1.74-10.18-6.68-18.91-23.11-23.71-5.75-1.67-18.31-6.38-21.82-8.22-12.33-6.89-18.27-16.24-17.65-27.87,1-16.11,15.73-28.34,34.59-28.75a63.11,63.11,0,0,1,24.56,4.57,65.57,65.57,0,0,1,9.75,5.05c2.11,1.5,2.11,2.53,1.08,4.46-.14.25-.69,1-2.12,3.08h0c-1.5,2.15-2,2.8-2.09,3-1.23,1.6-2.27,2.1-4.39.82a47.16,47.16,0,0,0-26.29-7.87c-11.75.44-20.38,7.4-20.79,16.64C386.41,495.17,393,501.22,407.34,505.82Zm87.39-4.67c19,0,34.71,15.34,34.78,34.15V572c0,2.12-.55,2.62-2.63,2.62h-8.73c-2.1,0-2.63-.5-2.63-2.62V535.4a20.79,20.79,0,0,0-41.58-.08V572c0,1.82-.72,2.62-2.63,2.62h-8.75c-2.08,0-2.62-.77-2.62-2.62V459.65c0-1.93.54-2.62,2.62-2.62h8.75c1.88,0,2.63.73,2.63,2.62V508A34.93,34.93,0,0,1,494.73,501.15Zm83.52,60.26a23.34,23.34,0,1,0-23.83-23.33A23.59,23.59,0,0,0,578.25,561.41Zm0-60.19c20.78,0,37.62,16.51,37.62,36.88S599,575,578.25,575s-37.62-16.51-37.62-36.87S557.48,501.22,578.25,501.22Zm232.43,28.32h41.68a22.85,22.85,0,0,0-21-14.86A21.24,21.24,0,0,0,810.68,529.54Zm52,13.52H809.82a22.82,22.82,0,0,0,12.42,15.76,31.15,31.15,0,0,0,5.41,2c9.42,2,20.23.53,28.46-6.79.12-.13.35-.27.59-.48,1.38-1.22,2.35-.91,3.43.44,0,0,1.55,2.15,4.31,6.55,1.19,1.86,1.1,2.75-.89,4.8-.08.08-.24.23-.47.43-.38.34-.83.71-1.36,1.1a35.09,35.09,0,0,1-5.37,3.31c-7.72,3.89-17.23,5.72-28.54,4.36l-1-.16v0l-.64-.12a37.87,37.87,0,0,1-21.15-11.66l0-.05a35.83,35.83,0,0,1-9-19.49h0l-.06-.48a38,38,0,0,1-.27-4.53c0-20.36,16-36.87,35.67-36.87S867,517.68,867,538v.27c0,.1,0,.2,0,.31a4.37,4.37,0,0,1-4.11,4.43ZM664.41,561.22A23.33,23.33,0,1,0,641,537.28v1.21A23.36,23.36,0,0,0,664.41,561.22Zm0-60.19A36.88,36.88,0,1,1,641,566.46v43.29c0,2-.55,2.62-2.63,2.62h-8.32c-2.09,0-2.63-.69-2.63-2.62V503.65c0-2,.54-2.62,2.63-2.62h8.32c2.08,0,2.63.64,2.63,2.62v5.7A36.88,36.88,0,0,1,664.42,501Zm63.68,28.51h41.68a22.85,22.85,0,0,0-21-14.86A21.24,21.24,0,0,0,728.1,529.54Zm56.31,8.5v.27c0,.1,0,.2,0,.31a4.37,4.37,0,0,1-4.11,4.43H727.24a22.82,22.82,0,0,0,12.42,15.76,31.15,31.15,0,0,0,5.41,2c9.42,2,20.23.53,28.46-6.79.12-.13.35-.27.59-.48,1.38-1.22,2.35-.91,3.43.44,0,0,1.55,2.15,4.31,6.55,1.19,1.86,1.1,2.75-.89,4.8-.08.08-.24.23-.47.43s-.83.71-1.36,1.1a35.09,35.09,0,0,1-5.37,3.31c-7.72,3.89-17.23,5.72-28.54,4.36l-1-.16v0l-.64-.12a37.87,37.87,0,0,1-21.15-11.66l0-.05a35.83,35.83,0,0,1-9-19.49h0l-.06-.48a38,38,0,0,1-.27-4.53c0-20.36,16-36.87,35.67-36.87S784.41,517.68,784.41,538Z" transform="translate(-133 -380.65)"/></svg>